<svg width="40" height="33" viewBox="0 0 40 33" fill="none" xmlns="http://www.w3.org/2000/svg">
<path d="M37.5612 28.6498C38.9083 28.6498 40 29.6235 40 30.8249C39.9999 32.0262 38.9082 33 37.5612 33H2.43878C1.0918 33 0.00013673 32.0262 0 30.8249C0 29.6235 1.09172 28.6498 2.43878 28.6498H37.5612ZM37.5612 14.3249C38.9083 14.3249 40 15.2986 40 16.5C39.9999 17.7014 38.9082 18.6751 37.5612 18.6751H2.43878C1.09176 18.6751 6.83674e-05 17.7014 0 16.5C0 15.2986 1.09172 14.3249 2.43878 14.3249H37.5612ZM37.5612 0C38.9083 0 40 0.973676 40 2.17509C40 3.3765 38.9083 4.35017 37.5612 4.35017H2.43878C1.09172 4.35017 0 3.3765 0 2.17509C0 0.973676 1.09172 0 2.43878 0H37.5612Z" fill="#1A1A1A"/>
</svg>
