<svg width="40" height="40" viewBox="0 0 40 40" fill="none" xmlns="http://www.w3.org/2000/svg">
<path d="M18 30H22V18H18V30ZM20 14C20.5667 14 21.042 13.808 21.426 13.424C21.81 13.04 22.0013 12.5653 22 12C21.9987 11.4347 21.8067 10.96 21.424 10.576C21.0413 10.192 20.5667 10 20 10C19.4333 10 18.9587 10.192 18.576 10.576C18.1933 10.96 18.0013 11.4347 18 12C17.9987 12.5653 18.1907 13.0407 18.576 13.426C18.9613 13.8113 19.436 14.0027 20 14ZM20 40C17.2333 40 14.6333 39.4747 12.2 38.424C9.76666 37.3733 7.65 35.9487 5.85 34.15C4.05 32.3513 2.62533 30.2347 1.576 27.8C0.526669 25.3653 0.00133586 22.7653 2.53164e-06 20C-0.0013308 17.2347 0.524002 14.6347 1.576 12.2C2.628 9.76533 4.05267 7.64866 5.85 5.85C7.64733 4.05133 9.764 2.62667 12.2 1.576C14.636 0.525333 17.236 0 20 0C22.764 0 25.364 0.525333 27.8 1.576C30.236 2.62667 32.3527 4.05133 34.15 5.85C35.9473 7.64866 37.3726 9.76533 38.426 12.2C39.4793 14.6347 40.004 17.2347 40 20C39.996 22.7653 39.4706 25.3653 38.424 27.8C37.3773 30.2347 35.9526 32.3513 34.15 34.15C32.3473 35.9487 30.2306 37.374 27.8 38.426C25.3693 39.478 22.7693 40.0027 20 40Z" fill="white"/>
<path d="M18 30H22V18H18V30ZM20 14C20.5667 14 21.042 13.808 21.426 13.424C21.81 13.04 22.0013 12.5653 22 12C21.9987 11.4347 21.8067 10.96 21.424 10.576C21.0413 10.192 20.5667 10 20 10C19.4333 10 18.9587 10.192 18.576 10.576C18.1933 10.96 18.0013 11.4347 18 12C17.9987 12.5653 18.1907 13.0407 18.576 13.426C18.9613 13.8113 19.436 14.0027 20 14ZM20 40C17.2333 40 14.6333 39.4747 12.2 38.424C9.76666 37.3733 7.65 35.9487 5.85 34.15C4.05 32.3513 2.62533 30.2347 1.576 27.8C0.526669 25.3653 0.00133586 22.7653 2.53164e-06 20C-0.0013308 17.2347 0.524002 14.6347 1.576 12.2C2.628 9.76533 4.05267 7.64866 5.85 5.85C7.64733 4.05133 9.764 2.62667 12.2 1.576C14.636 0.525333 17.236 0 20 0C22.764 0 25.364 0.525333 27.8 1.576C30.236 2.62667 32.3527 4.05133 34.15 5.85C35.9473 7.64866 37.3726 9.76533 38.426 12.2C39.4793 14.6347 40.004 17.2347 40 20C39.996 22.7653 39.4706 25.3653 38.424 27.8C37.3773 30.2347 35.9526 32.3513 34.15 34.15C32.3473 35.9487 30.2306 37.374 27.8 38.426C25.3693 39.478 22.7693 40.0027 20 40Z" fill="white"/>
</svg>
