<svg width="35" height="35" viewBox="0 0 35 35" fill="none" xmlns="http://www.w3.org/2000/svg">
<path fill-rule="evenodd" clip-rule="evenodd" d="M17.5199 22.2111L29.3067 33.9844C29.9321 34.6092 30.7804 34.9601 31.6649 34.9601C32.5495 34.9601 33.3977 34.6092 34.0232 33.9844C34.6486 33.3597 35 32.5124 35 31.6289C35 30.7454 34.6486 29.8981 34.0232 29.2733L22.232 17.5L34.021 5.72667C34.3305 5.41733 34.576 5.05013 34.7435 4.64602C34.911 4.24191 34.9971 3.80881 34.997 3.37144C34.9969 2.93408 34.9105 2.50102 34.7429 2.09698C34.5752 1.69295 34.3295 1.32586 34.0198 1.01667C33.7102 0.707482 33.3425 0.462248 32.938 0.294972C32.5334 0.127695 32.0998 0.0416517 31.6619 0.0417547C31.2241 0.0418578 30.7905 0.128105 30.386 0.295572C29.9815 0.463039 29.614 0.708447 29.3045 1.01778L17.5199 12.7911L5.73317 1.01778C5.42577 0.699574 5.058 0.445703 4.65132 0.270982C4.24464 0.096261 3.8072 0.00418913 3.36452 0.000139654C2.92184 -0.00390982 2.48278 0.0801435 2.07297 0.247395C1.66316 0.414647 1.2908 0.661748 0.977615 0.97428C0.664431 1.28681 0.416697 1.65852 0.248868 2.0677C0.081039 2.47689 -0.00352416 2.91537 0.000112504 3.35755C0.00374917 3.79973 0.0955125 4.23676 0.270049 4.64313C0.444586 5.04951 0.6984 5.4171 1.01668 5.72445L12.8079 17.5L1.01891 29.2756C0.700623 29.5829 0.446809 29.9505 0.272273 30.3569C0.0977361 30.7632 0.00597167 31.2003 0.002335 31.6425C-0.00130166 32.0846 0.0832615 32.5231 0.251091 32.9323C0.41892 33.3415 0.666653 33.7132 0.979837 34.0257C1.29302 34.3383 1.66538 34.5854 2.07519 34.7526C2.48501 34.9199 2.92406 35.0039 3.36674 34.9999C3.80943 34.9958 4.24687 34.9037 4.65354 34.729C5.06022 34.5543 5.42799 34.3004 5.73539 33.9822L17.5199 22.2111Z" fill="#1A1A1A"/>
</svg>
