<svg width="40" height="40" viewBox="0 0 40 40" fill="none" xmlns="http://www.w3.org/2000/svg">
<path d="M38.4417 13.3333H32.6579L31.4253 5.56667C31.177 4.39156 30.6315 3.30932 29.8469 2.43485C29.0623 1.56038 28.0678 0.926324 26.969 0.6C25.8646 0.227264 24.7149 0.0251664 23.5556 0H16.476C15.3167 0.0251664 14.167 0.227264 13.0626 0.6C11.9638 0.926324 10.9693 1.56038 10.1847 2.43485C9.40005 3.30932 8.85461 4.39156 8.60625 5.56667L7.37364 13.3333H1.58986C1.34093 13.3317 1.09517 13.3922 0.872591 13.5098C0.650016 13.6273 0.456924 13.7987 0.309048 14.0099C0.161172 14.2211 0.062695 14.4661 0.02164 14.7251C-0.0194149 14.984 -0.00188601 15.2496 0.072798 15.5L6.01461 36.5C6.31711 37.5145 6.91842 38.4008 7.73119 39.0302C8.54396 39.6596 9.52584 39.9994 10.5342 40H29.4974C30.5003 39.9923 31.4751 39.6493 32.2815 39.0204C33.088 38.3915 33.6845 37.5091 33.9854 36.5L39.9272 15.5C40.0011 15.2522 40.019 14.9897 39.9797 14.7333C39.9403 14.4769 39.8446 14.2337 39.7003 14.0233C39.556 13.8128 39.367 13.6408 39.1485 13.521C38.93 13.4012 38.688 13.3369 38.4417 13.3333ZM10.5974 13.3333L11.7352 6.1C11.8599 5.50941 12.1492 4.97166 12.566 4.55587C12.9828 4.14007 13.5079 3.86523 14.074 3.76667C14.8515 3.50667 15.6606 3.36333 16.476 3.33333H23.5556C24.3836 3.36222 25.1949 3.50667 25.9892 3.76667C26.5552 3.86523 27.0804 4.14007 27.4972 4.55587C27.9139 4.97166 28.2033 5.50941 28.328 6.1L29.4342 13.3333H10.471H10.5974Z" fill="#1A1A1A"/>
</svg>
