<svg width="38" height="28" viewBox="0 0 38 28" fill="none" xmlns="http://www.w3.org/2000/svg">
<path d="M29.3636 25.0455C28.6765 25.0455 28.0175 24.7725 27.5316 24.2866C27.0457 23.8007 26.7727 23.1417 26.7727 22.4545C26.7727 21.7674 27.0457 21.1084 27.5316 20.6225C28.0175 20.1366 28.6765 19.8636 29.3636 19.8636C30.0508 19.8636 30.7098 20.1366 31.1957 20.6225C31.6816 21.1084 31.9545 21.7674 31.9545 22.4545C31.9545 23.1417 31.6816 23.8007 31.1957 24.2866C30.7098 24.7725 30.0508 25.0455 29.3636 25.0455ZM31.9545 9.5L35.34 13.8182H27.6364V9.5M8.63636 25.0455C7.94921 25.0455 7.2902 24.7725 6.80431 24.2866C6.31842 23.8007 6.04545 23.1417 6.04545 22.4545C6.04545 21.7674 6.31842 21.1084 6.80431 20.6225C7.2902 20.1366 7.94921 19.8636 8.63636 19.8636C9.32352 19.8636 9.98252 20.1366 10.4684 20.6225C10.9543 21.1084 11.2273 21.7674 11.2273 22.4545C11.2273 23.1417 10.9543 23.8007 10.4684 24.2866C9.98252 24.7725 9.32352 25.0455 8.63636 25.0455ZM32.8182 6.90909H27.6364V0H3.45455C1.53727 0 0 1.53727 0 3.45455V22.4545H3.45455C3.45455 23.8288 4.00049 25.1469 4.97227 26.1186C5.94404 27.0904 7.26206 27.6364 8.63636 27.6364C10.0107 27.6364 11.3287 27.0904 12.3005 26.1186C13.2722 25.1469 13.8182 23.8288 13.8182 22.4545H24.1818C24.1818 23.8288 24.7278 25.1469 25.6995 26.1186C26.6713 27.0904 27.9893 27.6364 29.3636 27.6364C30.7379 27.6364 32.056 27.0904 33.0277 26.1186C33.9995 25.1469 34.5455 23.8288 34.5455 22.4545H38V13.8182L32.8182 6.90909Z" fill="#1A1A1A"/>
</svg>
