<svg width="27" height="16" viewBox="0 0 27 16" fill="none" xmlns="http://www.w3.org/2000/svg">
<path d="M0.585573 0.585416C0.960628 0.210474 1.46924 -0.000157356 1.99957 -0.000157356C2.5299 -0.000157356 3.03852 0.210474 3.41357 0.585416L13.3136 10.4854L23.2136 0.585416C23.5908 0.2211 24.096 0.019511 24.6204 0.0240679C25.1448 0.0286247 25.6464 0.238962 26.0172 0.609778C26.388 0.980595 26.5984 1.48222 26.6029 2.00661C26.6075 2.53101 26.4059 3.03621 26.0416 3.41341L14.7276 14.7274C14.3525 15.1024 13.8439 15.313 13.3136 15.313C12.7832 15.313 12.2746 15.1024 11.8996 14.7274L0.585573 3.41341C0.210631 3.03836 0 2.52974 0 1.99942C0 1.46909 0.210631 0.960471 0.585573 0.585416Z" fill="#1A1A1A"/>
</svg>
