<svg width="168" height="35" viewBox="0 0 168 35" fill="none" xmlns="http://www.w3.org/2000/svg">
<path d="M20.1992 11.875L20.2852 12.1416H31.5977L22.668 18.7148L22.4453 18.8789L22.5303 19.1416L25.9375 29.7686L17.0225 23.2061L16.7949 23.0381L16.5674 23.2061L7.65137 29.7686L11.0596 19.1416L11.1436 18.8789L10.9219 18.7148L1.99219 12.1416H13.3047L13.3896 11.875L16.7939 1.25684L20.1992 11.875Z" fill="#FFFDFA" stroke="#FFFDFA" stroke-width="0.768404"/>
<path d="M53.7891 11.875L53.875 12.1416H65.1875L56.2578 18.7148L56.0352 18.8789L56.1201 19.1416L59.5273 29.7686L50.6123 23.2061L50.3848 23.0381L50.1572 23.2061L41.2412 29.7686L44.6494 19.1416L44.7334 18.8789L44.5117 18.7148L35.582 12.1416H46.8945L46.9795 11.875L50.3838 1.25684L53.7891 11.875Z" fill="#FFFDFA" stroke="#FFFDFA" stroke-width="0.768404"/>
<path d="M87.377 11.875L87.4629 12.1416H98.7754L89.8457 18.7148L89.623 18.8789L89.708 19.1416L93.1152 29.7686L84.2002 23.2061L83.9727 23.0381L83.7451 23.2061L74.8291 29.7686L78.2373 19.1416L78.3213 18.8789L78.0996 18.7148L69.1699 12.1416H80.4824L80.5674 11.875L83.9717 1.25684L87.377 11.875Z" fill="#FFFDFA" stroke="#FFFDFA" stroke-width="0.768404"/>
<path d="M120.967 11.875L121.053 12.1416H132.365L123.436 18.7148L123.213 18.8789L123.298 19.1416L126.705 29.7686L117.79 23.2061L117.562 23.0381L117.335 23.2061L108.419 29.7686L111.827 19.1416L111.911 18.8789L111.689 18.7148L102.76 12.1416H114.072L114.157 11.875L117.562 1.25684L120.967 11.875Z" fill="#FFFDFA" stroke="#FFFDFA" stroke-width="0.768404"/>
<path d="M154.557 11.875L154.643 12.1416H165.955L157.025 18.7148L156.803 18.8789L156.888 19.1416L160.295 29.7686L151.38 23.2061L151.152 23.0381L150.925 23.2061L142.009 29.7686L145.417 19.1416L145.501 18.8789L145.279 18.7148L136.35 12.1416H147.662L147.747 11.875L151.151 1.25684L154.557 11.875Z" fill="#FFFDFA" stroke="#FFFDFA" stroke-width="0.768404"/>
</svg>
