<svg width="167" height="35" viewBox="0 0 167 35" fill="none" xmlns="http://www.w3.org/2000/svg">
<path d="M20.1992 11.875L20.2852 12.1416H31.5977L22.668 18.7149L22.4453 18.879L22.5303 19.1416L25.9375 29.7686L17.0225 23.2061L16.7949 23.0381L16.5674 23.2061L7.65137 29.7686L11.0596 19.1416L11.1436 18.879L10.9219 18.7149L1.99219 12.1416H13.3047L13.3896 11.875L16.7939 1.25688L20.1992 11.875Z" fill="#1A1A1A" stroke="#1A1A1A" stroke-width="0.768404"/>
<path d="M53.7891 11.875L53.875 12.1416H65.1875L56.2578 18.7148L56.0352 18.8789L56.1201 19.1416L59.5273 29.7686L50.6123 23.2061L50.3848 23.0381L50.1572 23.2061L41.2412 29.7686L44.6494 19.1416L44.7334 18.8789L44.5117 18.7148L35.582 12.1416H46.8945L46.9795 11.875L50.3838 1.25684L53.7891 11.875Z" fill="#1A1A1A" stroke="#1A1A1A" stroke-width="0.768404"/>
<path d="M87.3779 11.875L87.4639 12.1416H98.7764L89.8467 18.7149L89.624 18.879L89.709 19.1416L93.1162 29.7686L84.2012 23.2061L83.9736 23.0381L83.7461 23.2061L74.8301 29.7686L78.2383 19.1416L78.3223 18.879L78.1006 18.7149L69.1709 12.1416H80.4834L80.5684 11.875L83.9727 1.25688L87.3779 11.875Z" fill="#1A1A1A" stroke="#1A1A1A" stroke-width="0.768404"/>
<path d="M120.967 11.875L121.053 12.1416H132.365L123.436 18.7149L123.213 18.879L123.298 19.1416L126.705 29.7686L117.79 23.2061L117.562 23.0381L117.335 23.2061L108.419 29.7686L111.827 19.1416L111.911 18.879L111.689 18.7149L102.76 12.1416H114.072L114.157 11.875L117.562 1.25688L120.967 11.875Z" fill="#1A1A1A" stroke="#1A1A1A" stroke-width="0.768404"/>
<path d="M149.946 23.3203L141.187 29.7686L144.595 19.1416L144.68 18.8789L144.457 18.7148L135.527 12.1416H146.84L146.926 11.875L149.946 2.45508V23.3203Z" fill="#1A1A1A" stroke="#1A1A1A" stroke-width="0.768404"/>
<path d="M153.735 11.875L153.82 12.1416H165.133L156.203 18.7148L155.98 18.8789L156.065 19.1416L159.473 29.7686L150.714 23.3203V2.45508L153.735 11.875Z" stroke="#1A1A1A" stroke-width="0.768404"/>
</svg>
